<?xml version="1.0" encoding="UTF-8"?>
<svg width="900px" height="100px" viewBox="0 0 900 100" version="1.1" xmlns="http://www.w3.org/2000/svg" xmlns:xlink="http://www.w3.org/1999/xlink">
    <!-- Generator: Sketch Beta 47 (45396) - http://www.bohemiancoding.com/sketch -->
    <title>hb-logo-da</title>
    <desc>Created with Sketch Beta.</desc>
    <defs></defs>
    <g id="homebase-logo" stroke="none" stroke-width="1" fill="none" fill-rule="evenodd">
        <g id="hb-logo-da">
            <g id="hb-logo-darkaccent">
                <g id="homebase-logotype" transform="translate(140.000000, 0.000000)" fill="#231F20">
                    <g>
                        <path d="M20.5960891,41.2059651 L49.4027889,41.2059651 L49.4027889,6.02644907 C49.4027889,2.67585819 51.0734092,1 54.4135278,1 L64.9892611,1 C68.3293797,1 70,2.67585819 70,6.02644907 L70,93.9735509 C70,97.3241418 68.3293797,99 64.9892611,99 L54.4135278,99 C51.0734092,99 49.4027889,97.3241418 49.4027889,93.9735509 L49.4027889,58.9335959 L20.5960891,58.9335959 L20.5960891,93.9735509 C20.5960891,97.3241418 18.9265908,99 15.5864722,99 L5.0107389,99 C1.66949832,99 0,97.3241418 0,93.9735509 L0,6.02644907 C0,2.67585819 1.66949832,1 5.0107389,1 L15.5864722,1 C18.9265908,1 20.5960891,2.67585819 20.5960891,6.02644907 L20.5960891,41.2059651 Z" id="Fill-7"></path>
                        <path d="M115.586458,32.36101 L115.586458,67.63899 C115.586458,73.6588097 116.443246,77.6630648 118.159064,79.652875 C119.874883,81.6460445 123.282969,82.6392699 128.383324,82.6392699 L135.616676,82.6392699 C140.715909,82.6392699 144.123996,81.6460445 145.839815,79.652875 C147.554512,77.6630648 148.413542,73.6588097 148.413542,67.63899 L148.413542,32.36101 C148.413542,26.3434298 147.554512,22.3391747 145.839815,20.347125 C144.123996,18.3584346 140.715909,17.3607301 135.616676,17.3607301 L128.383324,17.3607301 C123.282969,17.3607301 119.874883,18.3584346 118.159064,20.347125 C116.443246,22.3391747 115.586458,26.3434298 115.586458,32.36101 M95,67.91669 L95,32.08331 C95,19.6763899 97.2014064,11.2278148 101.607583,6.73646492 C106.010396,2.24623481 114.564817,0 127.270845,0 L136.730276,0 C149.43294,0 157.987361,2.24623481 162.393538,6.73646492 C166.796351,11.2278148 169,19.6763899 169,32.08331 L169,67.91669 C169,80.3258496 166.796351,88.7744247 162.393538,93.2635351 C157.987361,97.7571245 149.43294,100 136.730276,100 L127.270845,100 C114.564817,100 106.010396,97.7571245 101.607583,93.2635351 C97.2014064,88.7744247 95,80.3258496 95,67.91669" id="Fill-9"></path>
                        <path d="M294,6.02538129 L294,93.9746187 C294,97.3252481 292.338321,99 289.017195,99 L278.496948,99 C275.174706,99 273.514143,97.3252481 273.514143,93.9746187 L273.514143,41.0657387 L251.061948,87.1191657 C250.142389,89.177715 248.536508,90.2053014 246.239842,90.2053014 L243.760158,90.2053014 C241.463492,90.2053014 239.854263,89.177715 238.938052,87.1191657 L216.485857,41.0657387 L216.485857,93.9746187 C216.485857,97.3252481 214.824178,99 211.501936,99 L200.982805,99 C197.659447,99 196,97.3252481 196,93.9746187 L196,6.02538129 C196,2.67475193 197.658331,1 200.978341,1 L212.17933,1 C214.945819,1 216.974652,2.26056597 218.264713,4.77832139 L245.231006,60.8566244 L272.108021,4.96065325 C273.375763,2.32134326 275.370001,1 278.090735,1 L289.105357,1 C292.367336,1 294,2.67475193 294,6.02538129" id="Fill-11"></path>
                        <path d="M379.98544,99 L329.013437,99 C325.670771,99 324,97.3241418 324,93.9735509 L324,6.02644907 C324,2.67585819 325.670771,1 329.013437,1 L379.290408,1 C382.630828,1 384.304968,2.67585819 384.304968,6.02644907 L384.304968,13.5638717 C384.304968,16.9155881 382.630828,18.5903208 379.290408,18.5903208 L344.610672,18.5903208 L344.610672,41.0652786 L374.13774,41.0652786 C377.479283,41.0652786 379.150054,42.7400113 379.150054,46.0906021 L379.150054,53.6291503 C379.150054,56.9797411 377.479283,58.6555993 374.13774,58.6555993 L344.610672,58.6555993 L344.610672,81.4108047 L379.98544,81.4108047 C383.330351,81.4108047 385,83.0855374 385,86.4361283 L385,93.9735509 C385,97.3241418 383.330351,99 379.98544,99" id="Fill-13"></path>
                        <path d="M455.062166,57.2595094 L435.101344,57.2595094 L435.101344,82.1095415 L455.062166,82.1095415 C461.619071,82.1095415 464.89979,79.1314544 464.89979,73.1741547 L464.89979,66.1937707 C464.89979,60.238722 461.619071,57.2595094 455.062166,57.2595094 L455.062166,57.2595094 Z M435.101344,41.763552 L453.65582,41.763552 C460.213858,41.763552 463.494577,38.7854649 463.494577,32.8292907 L463.494577,26.8258453 C463.494577,20.8707966 460.213858,17.891584 453.65582,17.891584 L435.101344,17.891584 L435.101344,41.763552 Z M456.466246,99 L420.061033,99 C416.687389,99 415,97.3252481 415,93.9746187 L415,6.02538129 C415,2.67475193 416.687389,1 420.061033,1 L455.062166,1 C464.993848,1 472.231828,2.90773153 476.777238,6.7231946 C481.321515,10.5397832 483.59592,16.2641033 483.59592,23.8950294 L483.59592,33.3875413 C483.59592,42.3229282 479.938967,47.7208517 472.63186,49.5801865 C480.87502,50.8857727 485,56.6089673 485,66.7531468 L485,76.1060961 C485,83.8315647 482.727861,89.5772694 478.182451,93.3465867 C473.637041,97.1159041 466.397928,99 456.466246,99 L456.466246,99 Z" id="Fill-15"></path>
                        <path d="M544.489797,24.5925718 L533.417113,64.5194147 L555.433676,64.5194147 L544.489797,24.5925718 Z M528.997079,80.7118739 L525.075315,95.068655 C524.303617,97.6910523 522.412222,99 519.407909,99 L507.049439,99 C504.34906,99 503,97.7912212 503,95.374789 C503,94.6027012 503.185298,93.5402364 503.559283,92.1851435 L529.626414,5.77208779 C530.680579,2.59257175 533.218257,1 537.242838,1 L550.752642,1 C554.776094,1 557.313772,2.6882386 558.369066,6.06471581 L584.438457,92.6173326 C584.811312,93.9138998 585,94.8863253 585,95.5312324 C585,97.8429938 583.697265,99 581.094054,99 L569.251932,99 C566.370775,99 564.5596,97.6978053 563.818409,95.0934159 L559.871788,80.7118739 L528.997079,80.7118739 Z" id="Fill-17"></path>
                        <path d="M627.259403,72.2224711 L627.259403,75.0005599 C627.259403,78.2422234 627.976074,80.4649184 629.415022,81.6675251 C630.852849,82.8712517 633.565879,83.472555 637.552989,83.472555 L643.11812,83.472555 C647.102988,83.472555 649.817139,82.8712517 651.256087,81.6675251 C652.693914,80.4649184 653.410585,78.2422234 653.410585,75.0005599 L653.410585,70.0008958 C653.410585,66.6674132 652.806069,64.4223232 651.603768,63.2645063 C650.398101,62.1078091 647.381132,60.9264775 642.561832,59.722751 L626.981259,55.8338745 C617.61183,53.5204801 611.609294,50.6494524 608.966922,47.2230309 C606.322307,43.7988489 605,37.548429 605,28.472891 L605,25.9736188 C605,16.0661098 607.110757,9.26029606 611.33115,5.55729738 C615.549299,1.8542987 623.548194,0 635.326712,0 L641.865349,0 C653.641624,0 661.64164,1.8542987 665.862033,5.55729738 C670.082426,9.26029606 672.192061,16.0661098 672.192061,25.9736188 L672.192061,27.7786487 C672.192061,31.1110116 670.520952,32.7783128 667.184341,32.7783128 L656.610367,32.7783128 C653.272634,32.7783128 651.603768,31.1110116 651.603768,27.7786487 L651.603768,25.0016796 C651.603768,21.7611359 650.883733,19.5384409 649.445906,18.3335946 C648.0092,17.1321076 645.29617,16.5285647 641.30906,16.5285647 L635.883001,16.5285647 C631.894769,16.5285647 629.18174,17.1388261 627.747277,18.3559895 C626.306086,19.573153 625.591658,21.8193626 625.591658,25.0957382 L625.591658,28.7472286 C625.591658,32.1187826 626.189444,34.3885069 627.386138,35.5586411 C628.585075,36.729895 631.581857,37.9235438 636.377605,39.1395875 L651.957056,43.0273442 C661.351159,45.3317806 667.372761,48.1916109 670.026348,51.6023559 C672.674328,55.013101 674,61.2355273 674,70.2696347 L674,74.1405953 C674,84.0066737 671.889243,90.7822543 667.671093,94.4684568 C663.450701,98.1580185 655.451806,100 643.675531,100 L636.995579,100 C625.218182,100 617.220409,98.1490605 613.000016,94.4449421 C608.778502,90.7419434 606.672231,83.9361297 606.672231,74.027501 L606.672231,72.2224711 C606.672231,68.8889884 608.339976,67.222807 611.679952,67.222807 L622.251682,67.222807 C625.591658,67.222807 627.259403,68.8889884 627.259403,72.2224711" id="Fill-19"></path>
                        <path d="M754.986563,99 L704.013437,99 C700.669649,99 699,97.3241418 699,93.9735509 L699,6.02644907 C699,2.67585819 700.669649,1 704.013437,1 L754.290408,1 C757.630828,1 759.302722,2.67585819 759.302722,6.02644907 L759.302722,13.5638717 C759.302722,16.9155881 757.630828,18.5903208 754.290408,18.5903208 L719.610672,18.5903208 L719.610672,41.0652786 L749.135494,41.0652786 C752.479283,41.0652786 754.150054,42.7400113 754.150054,46.0906021 L754.150054,53.6291503 C754.150054,56.9797411 752.479283,58.6555993 749.135494,58.6555993 L719.610672,58.6555993 L719.610672,81.4108047 L754.986563,81.4108047 C758.328106,81.4108047 760,83.0855374 760,86.4361283 L760,93.9735509 C760,97.3241418 758.328106,99 754.986563,99" id="Fill-22"></path>
                    </g>
                </g>
                <g id="hb-icon-darkaccent">
                    <g>
                        <path d="M50,0 L9.87820513,0 C4.43091168,0 0,4.43876658 0,9.8950032 L0,60.1588413 C0,62.8016948 1.02777778,65.2861483 2.89316239,67.1562668 L3.21866097,67.4823424 L3.58760684,67.757045 L43.4301994,97.4941411 C45.2407407,99.1145299 47.5527066,100 50,100 C52.4465812,100 54.7592593,99.1145299 56.5698006,97.4941411 L96.4116809,67.757045 L96.781339,67.4823424 L97.1075499,67.1555533 C98.9729345,65.2861483 100,62.8016948 100,60.1588413 L100,9.8950032 C100,4.43876658 95.5683761,0 90.1217949,0 L50,0 Z" id="Fill-1" fill="#FCB813"></path>
                        <path d="M26.1805556,34.9265685 L26.1805556,17.0913194 C26.1805556,15.2684028 25.5121528,14.6 23.6892361,14.6 L17.4913194,14.6 C15.6684028,14.6 15,15.2684028 15,17.0913194 L15,54.2649306 C15,56.0878472 15.2734605,57.6211609 17.4913194,59.0545393 L23.6892361,63.7430496 C25.022337,64.6228635 26.1805556,64.1778257 26.1805556,62.354909 L26.1805556,44.3449713 L35.78125,44.3449713 L35.78125,69.893298 C35.78125,71.7162147 36.1632946,73.1392823 38.2725694,74.5909752 L44.0503772,78.8490949 C45.4647229,79.9871072 46.9618056,78.8763871 46.9618056,77.5236186 C46.9618056,76.621773 46.9618056,56.4776732 46.9618056,17.0913194 C46.9618056,15.2684028 46.2934028,14.6 44.4704861,14.6 L38.2725694,14.6 C36.4496528,14.6 35.78125,15.2684028 35.78125,17.0913194 L35.78125,34.9265685 L26.1805556,34.9265685 Z M73.6979167,31.9755912 L73.6979167,26.5097222 C73.6979167,24.3829861 72.6041667,23.5322917 70.3559028,23.5322917 L64.2795139,23.5322917 L64.2795139,34.9530217 L70.3559028,34.9530217 C72.6041667,34.9530217 73.6979167,34.1023273 73.6979167,31.9755912 Z M70.9635417,44.2920648 L64.2795139,44.2920648 L64.2795139,59.8761689 L70.9635417,55.0037955 C73.0587387,53.4741276 74.3055556,52.0698426 74.3055556,49.9431064 L74.3055556,47.3302592 C74.3055556,45.2035231 73.2118056,44.2920648 70.9635417,44.2920648 Z M72.1180556,66.8687231 L56.015625,78.9117592 C54.9040485,79.511469 53.5243056,79.4384668 53.5243056,77.6155502 L53.5243056,17.0913194 C53.5243056,15.2684028 54.1927083,14.6 56.015625,14.6 L71.5104167,14.6 C80.8072917,14.6 84.3923611,18.0635417 84.3923611,24.8083333 L84.3923611,32.4960129 C84.3923611,36.6887213 82.8125,38.8154574 79.7135417,39.544624 C83.1770833,40.0307352 85,42.3397629 85,46.7755268 L85,51.2052592 C85,57.9500509 84.1582193,58.0228229 72.1180556,66.8687231 Z" id="HB" fill="#231F20"></path>
                    </g>
                </g>
            </g>
        </g>
    </g>
</svg>